<svg height="55" viewBox="0 0 32 32" width="55" xmlns="http://www.w3.org/2000/svg"><path d="m178.264 22.385s-1.082.131-2.274.131-2.288-.121-2.288-.121c-2.785-.317-5.712-1.393-5.712-6.198 0-1.369.488-2.488 1.29-3.365-.128-.317-.559-1.592.123-3.319 0 0 1.053-.337 3.449 1.286 1-.278 2.073-.417 3.139-.422 1.065.005 2.138.144 3.14.422 2.394-1.623 3.445-1.286 3.445-1.286.684 1.727.254 3.002.125 3.319.803.877 1.289 1.996 1.289 3.365 0 4.817-2.932 5.878-5.726 6.188m-2.274-22.385c-8.837 0-16 7.163-16 16 0 8.836 7.163 16 16 16 8.836 0 16-7.164 16-16 0-8.837-7.164-16-16-16" fill="#333A63" fill-rule="evenodd" transform="translate(-160)"/></svg>