<svg height="55" viewBox="0 0 32 32" width="55" xmlns="http://www.w3.org/2000/svg"><g fill="#333a63" fill-rule="evenodd"><path d="m16.0187 19.0878c1.699 0 3.077-1.374 3.077-3.07 0-1.695-1.378-3.069-3.077-3.069s-3.077 1.374-3.077 3.069c0 1.696 1.378 3.07 3.077 3.07"/><path d="m19.5618 12.874h2.163c.247 0 .448-.2.448-.446v-2.159c0-.246-.201-.446-.448-.446h-2.163c-.247 0-.448.2-.448.446v2.159c0 .246.201.446.448.446"/><path d="m24 22.102c0 1.048-.851 1.898-1.902 1.898h-12.196c-1.05 0-1.902-.85-1.902-1.898v-12.205c0-1.048.852-1.897 1.902-1.897h12.196c1.051 0 1.902.849 1.902 1.897zm-8-22.102c-8.837 0-16 7.163-16 16 0 8.836 7.163 16 16 16s16-7.164 16-16c0-8.837-7.163-16-16-16z"/><path d="m20.8858 16.0182c0 2.677-2.183 4.856-4.867 4.856s-4.867-2.179-4.867-4.856c0-.444.06-.875.173-1.284h-1.497v6.958c0 .247.2.447.447.447h11.487c.248 0 .448-.2.448-.447v-6.958h-1.497c.113.409.173.84.173 1.284"/></g></svg>