<svg height="55" viewBox="0 0 33 32" width="55" xmlns="http://www.w3.org/2000/svg"><path d="m130.66 23.985h-3.315v-5.188c0-1.237-.022-2.828-1.723-2.828-1.725 0-1.988 1.348-1.988 2.74v5.276h-3.312v-10.668h3.178v1.459h.046c.442-.839 1.524-1.724 3.137-1.724 3.357 0 3.977 2.209 3.977 5.082zm-14.076-12.125c-1.065 0-1.924-.862-1.924-1.923s.859-1.923 1.924-1.923c1.06 0 1.921.862 1.921 1.923s-.861 1.923-1.921 1.923zm1.658 12.125h-3.319v-10.668h3.319zm4.418-23.985c-8.837 0-16 7.163-16 16 0 8.836 7.163 16 16 16s16-7.164 16-16c0-8.837-7.163-16-16-16z" fill="#333A63" fill-rule="evenodd" transform="translate(-106)"/></svg>