<?xml version="1.0" encoding="UTF-8"?>
<svg width="20px" height="20px" viewBox="0 0 20 20" version="1.1" xmlns="http://www.w3.org/2000/svg" xmlns:xlink="http://www.w3.org/1999/xlink">
    <!-- Generator: Sketch 62 (91390) - https://sketch.com -->
    <title>search-icon</title>
    <desc>Created with Sketch.</desc>
    <defs>
        <path d="M8,0 C12.418278,0 16,3.581722 16,8 C16,9.84820151 15.3732643,11.550021 14.3207287,12.9045228 L19.7071068,18.2928932 C20.0976311,18.6834175 20.0976311,19.3165825 19.7071068,19.7071068 C19.3165825,20.0976311 18.6834175,20.0976311 18.2928932,19.7071068 L18.2928932,19.7071068 L12.9045228,14.3207287 C11.550021,15.3732643 9.84820151,16 8,16 C3.581722,16 0,12.418278 0,8 C0,3.581722 3.581722,0 8,0 Z M8,2 C4.6862915,2 2,4.6862915 2,8 C2,11.3137085 4.6862915,14 8,14 C11.3137085,14 14,11.3137085 14,8 C14,4.6862915 11.3137085,2 8,2 Z" id="path-1"></path>
    </defs>
    <g id="Basic-screens" stroke="none" stroke-width="1" fill="none" fill-rule="evenodd">
        <g id="LandingPage(v2)-Copy" transform="translate(-128.000000, -1499.000000)">
            <g id="search-icon" transform="translate(128.000000, 1499.000000)">
                <mask id="mask-2" fill="white">
                    <use xlink:href="#path-1"></use>
                </mask>
                <use id="Icon" fill="#000000" fill-rule="nonzero" xlink:href="#path-1"></use>
                <g id="Colors-/-Black" mask="url(#mask-2)" fill="#000000">
                    <g transform="translate(-4.000000, -4.000000)" id="Color">
                        <rect x="0" y="0" width="28" height="28"></rect>
                    </g>
                </g>
            </g>
        </g>
    </g>
</svg>