<svg height="55" viewBox="0 0 33 32" width="55" xmlns="http://www.w3.org/2000/svg"><path d="m75.692 12.7371c.006.141.01.282.01.425 0 4.337-3.302 9.339-9.34 9.339-1.854 0-3.579-.543-5.032-1.474.257.03.518.045.783.045 1.538 0 2.953-.524 4.077-1.405-1.437-.026-2.649-.975-3.067-2.279.201.038.406.058.618.058.299 0 .589-.04.865-.115-1.502-.301-2.633-1.628-2.633-3.218v-.042c.442.246.949.394 1.487.411-.881-.589-1.461-1.594-1.461-2.732 0-.602.162-1.166.445-1.651 1.619 1.986 4.038 3.293 6.766 3.43-.056-.24-.085-.491-.085-.748 0-1.813 1.47-3.283 3.282-3.283.945 0 1.798.399 2.396 1.037.748-.147 1.451-.42 2.085-.796-.245.766-.766 1.409-1.443 1.816.664-.08 1.296-.256 1.885-.517-.44.658-.997 1.236-1.638 1.699m-6.362-12.737c-8.837 0-16 7.163-16 16 0 8.836 7.163 16 16 16s16-7.164 16-16c0-8.837-7.163-16-16-16" fill="#333A63" fill-rule="evenodd" transform="translate(-53)"/></svg>